<svg width="275" height="90" xmlns="http://www.w3.org/2000/svg" xmlns:svg="http://www.w3.org/2000/svg">
 <g>
  <g stroke="null" id="svg_8">
   <g stroke="null" id="svg_6">
    <path stroke="null" id="svg_2" d="m30.332,35.697l20.379,54.084l0,-51.097l-20.379,-2.987l0,0z" fill="#ffffff" stroke-width="14"/>
    <path stroke="null" id="svg_3" d="m25.993,38.37l13.561,35.045l-20.875,-14.008l-4.87,-19.332l12.184,-1.705m1.265,-2.153l-15.879,2.223l5.585,22.172l26.655,17.888l-16.361,-42.283l0,0z" fill="#ffffff" stroke-width="14"/>
    <path stroke="null" id="svg_4" d="m50.724,0l-20.289,5.869l-20.29,-5.869l-10.145,17.571l10.145,17.57l20.289,-2.608l20.29,2.608l10.144,-17.57l-10.144,-17.571zm-1.848,26.283l-9.973,-0.896l-2.24,-3.521l1.114,-1.725l2.199,3.472l7.882,0.708l3.897,-6.75l-3.866,-6.696l-7.899,1.456l-9.556,17.959l-9.557,-17.96l-7.899,-1.455l-3.865,6.696l3.896,6.75l7.883,-0.708l2.215,-3.458l1.111,1.712l-2.255,3.521l-9.973,0.896l-5.028,-8.712l5.06,-8.766l9.938,1.831l8.474,15.795l8.474,-15.796l9.938,-1.831l5.062,8.766l-5.032,8.712zm-8.936,-8.223l1.88,-3.041l4.066,-0.393l1.984,3.434l-1.984,3.434l-3.965,-0.279l-1.981,-3.155zm-19.01,0l-1.984,3.154l-3.964,0.279l-1.982,-3.434l1.982,-3.434l3.863,0.393l2.085,3.042z" fill="#ffffff" stroke-width="14"/>
   </g>
  </g>
 </g>
</svg>