<svg xmlns="http://www.w3.org/2000/svg" data-name="Layer 1" viewBox="0 0 90 112.5" x="0px" y="0px"><path d="M79.581,1.079H26.014A8.818,8.818,0,0,0,17.2,9.888v7.847H10.419a8.82,8.82,0,0,0-8.81,8.81V80.112a8.819,8.819,0,0,0,8.81,8.809H63.986A8.818,8.818,0,0,0,72.8,80.112V72.265h6.786a8.82,8.82,0,0,0,8.81-8.81V9.888A8.819,8.819,0,0,0,79.581,1.079ZM67.305,80.112a3.323,3.323,0,0,1-3.319,3.319H10.419A3.323,3.323,0,0,1,7.1,80.112V26.545a3.323,3.323,0,0,1,3.319-3.319H63.986a3.323,3.323,0,0,1,3.319,3.319ZM82.9,63.455a3.323,3.323,0,0,1-3.319,3.319H72.8V26.545a8.819,8.819,0,0,0-8.809-8.81H22.7V9.888a3.323,3.323,0,0,1,3.319-3.319H79.581A3.323,3.323,0,0,1,82.9,9.888Z"/><text x="0" y="105" fill="#000000" font-size="5px" font-weight="bold" font-family="'Helvetica Neue', Helvetica, Arial-Unicode, Arial, Sans-serif">Created by Andi wiyanto</text><text x="0" y="110" fill="#000000" font-size="5px" font-weight="bold" font-family="'Helvetica Neue', Helvetica, Arial-Unicode, Arial, Sans-serif">from the Noun Project</text></svg>